<svg width="171" height="60" viewBox="0 0 171 60" fill="none" xmlns="http://www.w3.org/2000/svg">
<g filter="url(#filter0_d)">
<path d="M39.6442 44.7114C39.6442 47.3905 36.3994 48.7261 34.5134 46.8232L5.06635 17.1118C3.18947 15.2181 4.53087 12 7.19713 12L36.6442 12C38.3011 12 39.6442 13.3431 39.6442 15L39.6442 44.7114Z" fill="#9F9D9D"/>
<path d="M7.91279 52C7.61407 52 7.4647 52 7.37664 51.9948C4.88132 51.8479 3.6495 48.8927 5.30174 47.017C5.36005 46.9508 5.46518 46.8448 5.67546 46.6326L34.6127 17.4357C34.8253 17.2212 34.9316 17.1139 34.9975 17.0548C36.8676 15.3784 39.8466 16.6046 39.9948 19.1117C40 19.2001 40 19.3511 40 19.6531V48.85C40 48.9893 40 49.0589 39.9977 49.1178C39.9362 50.6821 38.6821 51.9362 37.1178 51.9977C37.0589 52 36.9893 52 36.85 52H7.91279Z" fill="#9F9D9D"/>
</g>
<g filter="url(#filter1_d)">
<path d="M130.641 21.6688C130.641 19.7233 130.641 18.7506 130.853 18.2169C131.481 16.637 133.295 15.894 134.851 16.5796C135.376 16.8112 136.059 17.5045 137.423 18.891L163.379 45.2622C164.717 46.6221 165.386 47.3021 165.609 47.827C166.269 49.38 165.519 51.1716 163.949 51.7907C163.418 52 162.464 52 160.556 52L134.601 52C133.708 52 133.262 52 132.895 51.9057C131.835 51.6336 131.007 50.806 130.735 49.7461C130.641 49.379 130.641 48.9327 130.641 48.04V21.6688Z" fill="#9F9D9D"/>
<path d="M161.187 12C163.095 12 164.049 12 164.58 12.2093C166.15 12.8284 166.9 14.62 166.24 16.173C166.017 16.6979 165.348 17.3779 164.009 18.7378L138.054 45.109C136.69 46.4955 136.007 47.1888 135.482 47.4204C133.926 48.106 132.112 47.363 131.484 45.7831C131.272 45.2494 131.272 44.2767 131.272 42.3312V15.96C131.272 15.0673 131.272 14.621 131.366 14.2539C131.638 13.194 132.466 12.3664 133.526 12.0943C133.893 12 134.339 12 135.232 12L161.187 12Z" fill="#9F9D9D"/>
</g>
<g filter="url(#filter2_d)">
<rect x="26" y="8" width="118" height="40" rx="5" fill="#C4C4C4"/>
<path d="M53.008 21.248C53.968 21.6 54.768 22.128 55.408 22.832C56.08 23.536 56.592 24.336 56.944 25.232C57.296 26.096 57.488 26.992 57.52 27.92C57.584 28.848 57.488 29.712 57.232 30.512C56.88 31.408 56.432 32.288 55.888 33.152C55.344 34.016 54.72 34.784 54.016 35.456C53.312 36.128 52.512 36.672 51.616 37.088C50.72 37.504 49.728 37.712 48.64 37.712C47.328 37.712 46.224 37.408 45.328 36.8C44.432 36.192 43.728 35.408 43.216 34.448C42.704 33.488 42.368 32.4 42.208 31.184C42.08 29.968 42.112 28.752 42.304 27.536C42.432 26.64 42.64 25.776 42.928 24.944C43.248 24.08 43.648 23.328 44.128 22.688C44.608 22.016 45.152 21.472 45.76 21.056C46.4 20.64 47.12 20.432 47.92 20.432C48.368 20.432 48.928 20.528 49.6 20.72C50.272 20.88 50.896 21.12 51.472 21.44C51.888 21.056 52.4 20.992 53.008 21.248ZM51.184 24.752C50.832 24.528 50.416 24.24 49.936 23.888C49.488 23.504 49.088 23.312 48.736 23.312C48.352 23.312 47.968 23.488 47.584 23.84C47.232 24.192 46.912 24.608 46.624 25.088C46.368 25.536 46.144 26 45.952 26.48C45.76 26.96 45.632 27.344 45.568 27.632C45.472 28.112 45.408 28.688 45.376 29.36C45.344 30.032 45.392 30.704 45.52 31.376C45.648 32.016 45.888 32.608 46.24 33.152C46.624 33.664 47.184 34.032 47.92 34.256C48.368 34.384 48.896 34.384 49.504 34.256C50.112 34.096 50.704 33.824 51.28 33.44C51.888 33.056 52.448 32.544 52.96 31.904C53.504 31.264 53.92 30.528 54.208 29.696C54.528 28.768 54.528 27.808 54.208 26.816C53.92 25.792 53.312 25.056 52.384 24.608C52.16 24.768 51.936 24.848 51.712 24.848C51.488 24.848 51.312 24.816 51.184 24.752ZM70.3503 23.648C70.2863 23.296 70.2223 22.96 70.1583 22.64C70.0943 22.32 69.9343 22.112 69.6783 22.016C69.1343 21.856 68.5583 21.84 67.9503 21.968C67.3423 22.096 66.7823 22.304 66.2703 22.592C65.7583 22.848 65.3263 23.152 64.9743 23.504C64.6223 23.824 64.4303 24.112 64.3983 24.368C64.3023 24.848 64.4303 25.312 64.7823 25.76C65.1343 26.208 65.6463 26.656 66.3183 27.104C67.4383 27.776 68.6063 28.464 69.8223 29.168C71.0383 29.872 72.0623 30.592 72.8943 31.328C73.7263 32.064 74.2863 32.88 74.5743 33.776C74.8943 34.64 74.8303 35.632 74.3823 36.752C74.0303 37.616 73.3743 38.32 72.4143 38.864C71.4543 39.408 70.3983 39.84 69.2463 40.16C68.0943 40.448 66.9423 40.656 65.7903 40.784C64.6383 40.88 63.6623 40.928 62.8623 40.928C62.6703 40.928 62.4303 40.864 62.1423 40.736C61.8863 40.576 61.6303 40.4 61.3743 40.208C61.1503 40.016 60.9423 39.824 60.7503 39.632C60.5903 39.408 60.5103 39.216 60.5103 39.056C60.5103 38.48 60.7663 38.08 61.2783 37.856C61.7903 37.632 62.3183 37.52 62.8623 37.52C63.6303 37.52 64.4463 37.488 65.3103 37.424C66.2063 37.328 67.0543 37.2 67.8543 37.04C68.6543 36.848 69.3743 36.608 70.0143 36.32C70.6543 36.032 71.1023 35.664 71.3583 35.216C71.5823 34.832 71.4383 34.384 70.9263 33.872C70.4463 33.328 69.7903 32.768 68.9583 32.192C68.1583 31.616 67.2783 31.056 66.3183 30.512C65.3903 29.968 64.5903 29.472 63.9183 29.024C63.2463 28.576 62.6703 28.048 62.1903 27.44C61.7103 26.8 61.4063 26.016 61.2783 25.088C61.2463 24.256 61.4223 23.456 61.8063 22.688C62.1903 21.92 62.6863 21.248 63.2943 20.672C63.9343 20.064 64.6543 19.584 65.4543 19.232C66.2543 18.88 67.0543 18.704 67.8543 18.704C69.2303 18.768 70.3663 19.152 71.2623 19.856C72.1583 20.528 72.6863 21.536 72.8463 22.88C72.8463 23.328 72.7663 23.696 72.6063 23.984C72.4783 24.272 72.2383 24.448 71.8863 24.512C71.4383 24.576 71.0703 24.528 70.7823 24.368C70.5263 24.176 70.3823 23.936 70.3503 23.648ZM89.6399 20.24C89.7679 21.136 89.8639 22.096 89.9279 23.12C90.0239 24.112 90.0879 25.12 90.1199 26.144C90.1839 27.168 90.2159 28.16 90.2159 29.12C90.2159 30.08 90.1999 30.944 90.1679 31.712C91.1919 32.416 91.7999 33.04 91.9919 33.584C92.2159 34.128 92.2479 34.608 92.0879 35.024C91.8959 35.6 91.5439 35.904 91.0319 35.936C90.5519 35.936 89.9919 35.76 89.3519 35.408C88.9039 35.728 88.3919 36.08 87.8159 36.464C87.2399 36.816 86.6319 37.168 85.9919 37.52C85.3519 37.84 84.7119 38.128 84.0719 38.384C83.4319 38.64 82.8399 38.816 82.2959 38.912C81.2719 39.072 80.3439 38.88 79.5119 38.336C78.7119 37.792 78.1679 36.976 77.8799 35.888C77.6879 35.152 77.6399 34.4 77.7359 33.632C77.8319 32.832 78.0719 32.08 78.4559 31.376C78.8399 30.64 79.3519 29.984 79.9919 29.408C80.6639 28.832 81.4479 28.384 82.3439 28.064C82.5679 27.968 82.8719 27.888 83.2559 27.824C83.6719 27.76 84.0879 27.744 84.5039 27.776C84.9519 27.776 85.3999 27.856 85.8479 28.016C86.2959 28.176 86.7119 28.448 87.0959 28.832C87.0959 28.288 87.0799 27.696 87.0479 27.056C87.0479 26.384 87.0319 25.712 86.9999 25.04C86.9679 24.368 86.9199 23.744 86.8559 23.168C86.8239 22.56 86.7759 22.048 86.7119 21.632C86.6479 21.152 86.4559 20.864 86.1359 20.768C85.8479 20.64 85.4799 20.656 85.0319 20.816C84.2639 21.072 83.3679 21.568 82.3439 22.304C81.3199 23.04 80.3439 23.824 79.4159 24.656C79.1279 24.944 78.7919 25.072 78.4079 25.04C78.0559 25.008 77.7519 24.864 77.4959 24.608C77.2399 24.352 77.0959 24.064 77.0639 23.744C77.0319 23.392 77.1599 23.024 77.4479 22.64C77.9919 22.064 78.5999 21.472 79.2719 20.864C79.9439 20.256 80.6479 19.712 81.3839 19.232C82.1199 18.72 82.8719 18.304 83.6399 17.984C84.4079 17.664 85.1759 17.488 85.9439 17.456C87.0639 17.424 87.9279 17.68 88.5359 18.224C89.1439 18.736 89.5119 19.408 89.6399 20.24ZM84.0719 30.56C83.6559 30.656 83.2079 30.864 82.7279 31.184C82.2799 31.472 81.8639 31.84 81.4799 32.288C81.1279 32.704 80.8559 33.184 80.6639 33.728C80.5039 34.24 80.5039 34.752 80.6639 35.264C80.7279 35.456 80.8559 35.6 81.0479 35.696C81.2719 35.792 81.5119 35.808 81.7679 35.744C82.5359 35.584 83.3999 35.28 84.3599 34.832C85.3519 34.352 86.1359 33.84 86.7119 33.296C86.7119 33.104 86.6159 32.864 86.4239 32.576C86.2319 32.256 86.0079 31.952 85.7519 31.664C85.4959 31.344 85.2079 31.072 84.8879 30.848C84.5999 30.624 84.3279 30.528 84.0719 30.56ZM109.242 21.44C108.666 21.76 108.058 22.096 107.418 22.448C106.81 22.8 106.186 23.216 105.546 23.696C104.938 24.144 104.346 24.688 103.77 25.328C103.226 25.936 102.73 26.672 102.282 27.536C101.642 28.752 101.21 30 100.986 31.28C100.762 32.528 100.618 33.76 100.554 34.976C100.554 35.552 100.41 36.144 100.122 36.752C99.8659 37.328 99.4979 37.616 99.0179 37.616C98.4099 37.616 97.9139 37.312 97.5299 36.704C97.1779 36.064 96.9379 35.456 96.8099 34.88C96.2659 32.608 95.8179 30.368 95.4659 28.16C95.1139 25.92 94.8099 23.696 94.5539 21.488C94.5539 21.04 94.6819 20.752 94.9379 20.624C95.2259 20.496 95.5459 20.448 95.8979 20.48C96.2819 20.512 96.6499 20.608 97.0019 20.768C97.3539 20.928 97.5619 21.184 97.6259 21.536C97.7539 22.72 97.9139 23.968 98.1059 25.28C98.2979 26.56 98.4899 27.664 98.6819 28.592C98.8099 27.504 99.1619 26.448 99.7379 25.424C100.314 24.4 101.018 23.472 101.85 22.64C102.714 21.808 103.674 21.104 104.73 20.528C105.818 19.952 106.922 19.568 108.042 19.376C108.522 19.312 108.922 19.312 109.242 19.376C109.562 19.44 109.786 19.552 109.914 19.712C110.042 19.872 110.058 20.128 109.962 20.48C109.898 20.832 109.658 21.152 109.242 21.44ZM123.18 21.248C124.14 21.6 124.94 22.128 125.58 22.832C126.252 23.536 126.764 24.336 127.116 25.232C127.468 26.096 127.66 26.992 127.692 27.92C127.756 28.848 127.66 29.712 127.404 30.512C127.052 31.408 126.604 32.288 126.06 33.152C125.516 34.016 124.892 34.784 124.188 35.456C123.484 36.128 122.684 36.672 121.788 37.088C120.892 37.504 119.9 37.712 118.812 37.712C117.5 37.712 116.396 37.408 115.5 36.8C114.604 36.192 113.9 35.408 113.388 34.448C112.876 33.488 112.54 32.4 112.38 31.184C112.252 29.968 112.284 28.752 112.476 27.536C112.604 26.64 112.812 25.776 113.1 24.944C113.42 24.08 113.82 23.328 114.3 22.688C114.78 22.016 115.324 21.472 115.932 21.056C116.572 20.64 117.292 20.432 118.092 20.432C118.54 20.432 119.1 20.528 119.772 20.72C120.444 20.88 121.068 21.12 121.644 21.44C122.06 21.056 122.572 20.992 123.18 21.248ZM121.356 24.752C121.004 24.528 120.588 24.24 120.108 23.888C119.66 23.504 119.26 23.312 118.908 23.312C118.524 23.312 118.14 23.488 117.756 23.84C117.404 24.192 117.084 24.608 116.796 25.088C116.54 25.536 116.316 26 116.124 26.48C115.932 26.96 115.804 27.344 115.74 27.632C115.644 28.112 115.58 28.688 115.548 29.36C115.516 30.032 115.564 30.704 115.692 31.376C115.82 32.016 116.06 32.608 116.412 33.152C116.796 33.664 117.356 34.032 118.092 34.256C118.54 34.384 119.068 34.384 119.676 34.256C120.284 34.096 120.876 33.824 121.452 33.44C122.06 33.056 122.62 32.544 123.132 31.904C123.676 31.264 124.092 30.528 124.38 29.696C124.7 28.768 124.7 27.808 124.38 26.816C124.092 25.792 123.484 25.056 122.556 24.608C122.332 24.768 122.108 24.848 121.884 24.848C121.66 24.848 121.484 24.816 121.356 24.752Z" fill="black"/>
</g>
<defs>
<filter id="filter0_d" x="0.191116" y="12" width="43.8089" height="48" filterUnits="userSpaceOnUse" color-interpolation-filters="sRGB">
<feFlood flood-opacity="0" result="BackgroundImageFix"/>
<feColorMatrix in="SourceAlpha" type="matrix" values="0 0 0 0 0 0 0 0 0 0 0 0 0 0 0 0 0 0 127 0"/>
<feOffset dy="4"/>
<feGaussianBlur stdDeviation="2"/>
<feColorMatrix type="matrix" values="0 0 0 0 0 0 0 0 0 0 0 0 0 0 0 0 0 0 0.25 0"/>
<feBlend mode="normal" in2="BackgroundImageFix" result="effect1_dropShadow"/>
<feBlend mode="normal" in="SourceGraphic" in2="effect1_dropShadow" result="shape"/>
</filter>
<filter id="filter1_d" x="126.641" y="12" width="43.8389" height="48" filterUnits="userSpaceOnUse" color-interpolation-filters="sRGB">
<feFlood flood-opacity="0" result="BackgroundImageFix"/>
<feColorMatrix in="SourceAlpha" type="matrix" values="0 0 0 0 0 0 0 0 0 0 0 0 0 0 0 0 0 0 127 0"/>
<feOffset dy="4"/>
<feGaussianBlur stdDeviation="2"/>
<feColorMatrix type="matrix" values="0 0 0 0 0 0 0 0 0 0 0 0 0 0 0 0 0 0 0.25 0"/>
<feBlend mode="normal" in2="BackgroundImageFix" result="effect1_dropShadow"/>
<feBlend mode="normal" in="SourceGraphic" in2="effect1_dropShadow" result="shape"/>
</filter>
<filter id="filter2_d" x="22" y="8" width="126" height="48" filterUnits="userSpaceOnUse" color-interpolation-filters="sRGB">
<feFlood flood-opacity="0" result="BackgroundImageFix"/>
<feColorMatrix in="SourceAlpha" type="matrix" values="0 0 0 0 0 0 0 0 0 0 0 0 0 0 0 0 0 0 127 0"/>
<feOffset dy="4"/>
<feGaussianBlur stdDeviation="2"/>
<feColorMatrix type="matrix" values="0 0 0 0 0 0 0 0 0 0 0 0 0 0 0 0 0 0 0.25 0"/>
<feBlend mode="normal" in2="BackgroundImageFix" result="effect1_dropShadow"/>
<feBlend mode="normal" in="SourceGraphic" in2="effect1_dropShadow" result="shape"/>
</filter>
</defs>
</svg>
